# xmcd CD database file
#
# Track frame offsets:
#	150
#	12560
#	26239
#	39538
#	53005
#	67301
#	81764
#	96928
#	111788
#	123563
#	136641
#	148536
#	161441
#	175003
#	188159
#	202334
#	215134
#	228244
#	241933
#	255961
#	270054
#
# Disc length: 3785 seconds
#
# Revision: 0
# Processed by: cddbd v1.5.2PL0 Copyright (c) Steve Scherf et al.
# Submitted via: CDex 1.70beta2
#
DISCID=270ec715
DTITLE=Billie Holiday - Ginats of Jazz 1
DYEAR=1900
DGENRE=Jazz
TTITLE0=Your Mother's Son-in-Law-Benny Goodman and His Orchestra
TTITLE1=I Wished on the Moon-Teddy Wilson and His Orchestra
TTITLE2=What a Little Moonlight Can Do-Teddy Wilson and His Orchestra
TTITLE3=Miss Brown to You-Teddy Wilson and His Orchestra
TTITLE4=If You Were Mine-Teddy Wilson and His Orchestra
TTITLE5=These 'n' That 'n' Those - Teddy Wilson and His Orchestra
TTITLE6=It's Like Reaching for the Moon - Teddy Wilson and His Orchestra
TTITLE7=These Foolish Things - Teddy Wilson and His Orchestra
TTITLE8=No Regrets- Billie Holiday and Her Orchestra
TTITLE9=Summertime - Billie Holiday and Her Orchestra
TTITLE10=Billie's Blues - Billie Holiday and Her Orchestra
TTITLE11=A Fine Romance - Billy Holiday and Her Orchestra
TTITLE12=The Way You Look Tonight - Teddy Wilson and His Orchestra
TTITLE13=I've Got My Love to Keep Me Warm - Billy Holiday and Her Orchestra
TTITLE14=This Year's Kisses - Teddy Wilson and His Orchestra
TTITLE15=Why Was I Born - Teddy Wilson and His Orchestra
TTITLE16=I Must Have Man! - Teddy Wilson and His Orchestra
TTITLE17=They Can't Take That Away From Me - Billie Holiday and Her Orchestra
TTITLE18=Sun Showers - Teddy Wilson and His Orchestra
TTITLE19=I'll Get By - Teddy Wilson and His Orchestra
TTITLE20=Mean to Me - Teddy Wilson and His Orchestra
EXTD=
EXTT0=
EXTT1=
EXTT2=
EXTT3=
EXTT4=
EXTT5=
EXTT6=
EXTT7=
EXTT8=
EXTT9=
EXTT10=
EXTT11=
EXTT12=
EXTT13=
EXTT14=
EXTT15=
EXTT16=
EXTT17=
EXTT18=
EXTT19=
EXTT20=
PLAYORDER=
